<svg xmlns="http://www.w3.org/2000/svg" enable-background="new 0 0 48 48" viewBox="0 0 48 48" id="portrait-mode">
  <path d="M32,38c0.553,0,1-0.447,1-1V11c0-0.553-0.447-1-1-1H16c-0.553,0-1,0.447-1,1v26c0,0.553,0.447,1,1,1H32z M17,12h14v24H17V12
	z M43.437,31.882C40.202,39.851,32.573,45,24,45C12.421,45,3,35.579,3,24c0-0.198,0.014-0.405,0.021-0.607l-1.314,1.314
	c-0.391,0.391-1.023,0.391-1.414,0s-0.391-1.023,0-1.414l3-3c0.391-0.391,1.023-0.391,1.414,0l3,3c0.391,0.391,0.391,1.023,0,1.414
	c-0.391,0.391-1.023,0.391-1.414,0L5.02,23.434C5.014,23.623,5,23.817,5,24c0,10.477,8.523,19,19,19
	c7.755,0,14.656-4.659,17.583-11.87c0.209-0.513,0.795-0.756,1.303-0.551C43.398,30.787,43.645,31.37,43.437,31.882z M47.707,24.707
	l-3,3c-0.391,0.391-1.023,0.391-1.414,0l-3-3c-0.391-0.391-0.391-1.023,0-1.414s1.023-0.391,1.414,0l1.273,1.273
	C42.987,24.377,43,24.184,43,24c0-10.477-8.523-19-19-19C16.245,5,9.344,9.659,6.417,16.87c-0.209,0.513-0.796,0.755-1.303,0.551
	c-0.512-0.208-0.759-0.791-0.551-1.303C7.798,8.149,15.427,3,24,3c11.579,0,21,9.421,21,21c0,0.198-0.015,0.405-0.022,0.608
	l1.315-1.315c0.391-0.391,1.023-0.391,1.414,0S48.098,24.316,47.707,24.707z"></path>
</svg>
